<svg version="1.1" id="Layer_1" xmlns="http://www.w3.org/2000/svg" xmlns:xlink="http://www.w3.org/1999/xlink" x="0px" y="0px"
	 width="100%" viewBox="0 0 1200 1200" enable-background="new 0 0 1200 1200" xml:space="preserve">
<path fill="#000000" opacity="1.000000" stroke="none" 
	d="
M1091.000000,1201.000000 
	C727.333313,1201.000000 364.166656,1201.000000 1.000000,1201.000000 
	C1.000000,801.000000 1.000000,401.000000 1.000000,1.000000 
	C401.000000,1.000000 801.000000,1.000000 1201.000000,1.000000 
	C1201.000000,401.000000 1201.000000,801.000000 1201.000000,1201.000000 
	C1164.500000,1201.000000 1128.000000,1201.000000 1091.000000,1201.000000 
M396.960388,638.560364 
	C404.295624,627.963623 414.608002,622.698730 427.286407,622.055725 
	C433.600525,621.735474 439.945923,622.081665 446.273712,621.954712 
	C448.451630,621.911011 451.024750,622.048889 451.016998,618.558899 
	C450.978088,601.067261 451.090637,583.574585 450.928680,566.084351 
	C450.892548,562.181152 448.670929,559.898682 444.362122,560.885925 
	C437.467316,562.465637 430.558563,563.993774 423.699341,565.717407 
	C410.327728,569.077393 396.994690,572.590515 383.629395,575.976013 
	C374.761505,578.222290 365.902649,580.526367 356.970886,582.491394 
	C349.112610,584.220276 341.074524,587.043213 333.268188,586.613892 
	C323.457458,586.074219 313.758240,582.893127 304.089661,580.529663 
	C290.224518,577.140381 276.415344,573.517883 262.611084,569.885315 
	C251.761581,567.030273 240.970932,563.951782 230.125259,561.081665 
	C222.440979,559.048218 218.014114,562.494873 218.005020,570.378540 
	C217.987717,585.371521 217.978943,600.364502 218.011597,615.357422 
	C218.022858,620.528625 219.483597,621.957153 224.684586,621.990417 
	C231.014679,622.030884 237.362091,621.703125 243.672089,622.061584 
	C257.005371,622.819092 267.133331,629.590210 273.776123,640.731995 
	C278.925842,649.369568 280.458588,658.964905 278.141388,669.268982 
	C275.454010,681.219299 268.578369,689.358215 258.143829,695.014954 
	C250.671951,699.065613 242.581299,699.035828 234.368698,699.074158 
	C216.105240,699.159424 218.091827,695.416138 218.016403,716.319946 
	C218.001572,720.426086 219.643173,723.722656 223.809326,724.892212 
	C231.529312,727.059448 239.298141,729.066772 247.091629,730.954895 
	C258.959808,733.830200 270.905243,736.392578 282.747040,739.369568 
	C298.752136,743.393127 314.663239,747.792236 330.682190,751.757446 
	C333.482147,752.450378 336.755035,752.364807 339.567902,751.666138 
	C348.870728,749.355530 358.024017,746.448364 367.308746,744.057495 
	C376.472809,741.697815 385.743164,739.753967 394.935486,737.499695 
	C400.538757,736.125549 406.065125,734.440674 411.656952,733.016663 
	C423.166473,730.085510 434.672211,727.131653 446.232208,724.411072 
	C450.087036,723.503845 451.023438,721.088928 451.006165,717.688293 
	C450.981628,712.857422 450.842865,708.019287 451.053711,703.197510 
	C451.200562,699.838867 449.832458,698.859436 446.645233,698.946838 
	C440.153168,699.124756 433.647491,699.169861 427.156982,698.965393 
	C412.668152,698.509155 401.746002,691.504700 395.161285,678.983521 
	C388.218781,665.782166 388.997589,652.158997 396.960388,638.560364 
M313.495514,453.952179 
	C301.620911,457.851349 292.560120,465.459717 285.170990,475.323151 
	C274.897095,489.037476 272.618195,504.718933 274.223480,521.183289 
	C274.600281,525.047729 276.438538,528.840820 278.031891,532.479553 
	C278.647308,533.885010 280.280548,535.361816 281.744385,535.782959 
	C286.375061,537.115051 291.171448,537.856506 295.855286,539.021118 
	C306.126770,541.575073 316.351074,544.319763 326.632263,546.832825 
	C329.995239,547.654846 333.643616,548.946472 336.865173,548.369263 
	C343.596893,547.163330 350.097534,544.723083 356.754761,543.032776 
	C367.191895,540.382690 377.715912,538.067078 388.112915,535.274231 
	C389.943909,534.782410 392.233093,532.941833 392.787842,531.230530 
	C397.778290,515.835205 397.627350,500.491119 390.284027,485.843689 
	C381.868073,469.056824 369.023590,456.863953 350.753387,451.442108 
	C345.245544,449.807648 339.166534,449.067963 333.448944,449.442230 
	C326.937012,449.868500 320.536652,451.999237 313.495514,453.952179 
M362.037109,571.448669 
	C369.850189,569.584534 377.678680,567.782166 385.472595,565.841064 
	C395.737579,563.284729 405.919952,560.367737 416.244995,558.091980 
	C422.794189,556.648499 423.999023,555.811829 423.999969,549.419312 
	C424.000153,548.253784 423.848419,547.064636 424.025909,545.926758 
	C424.849304,540.648682 419.543427,536.715759 414.115997,538.309082 
	C404.427734,541.153259 394.593262,543.506958 384.795929,545.970276 
	C370.481415,549.569519 356.153748,553.117371 341.811951,556.605957 
	C339.149445,557.253601 336.191254,558.391113 333.713562,557.817200 
	C317.153992,553.981506 300.686096,549.749573 284.191711,545.633057 
	C274.072968,543.107727 263.994751,540.406128 253.826614,538.099792 
	C250.017899,537.235962 247.016403,539.113708 246.073303,543.046509 
	C243.713348,552.887695 245.879456,556.063843 255.879501,558.046204 
	C256.490570,558.167297 256.998962,558.776978 257.611572,558.923767 
	C264.788147,560.642517 271.997162,562.229919 279.154846,564.022644 
	C289.268768,566.555664 299.346649,569.232666 309.440369,571.846436 
	C317.962372,574.053284 326.483856,576.262573 335.011688,578.446777 
	C335.363251,578.536804 335.789124,578.428833 336.160675,578.335022 
	C344.558563,576.216125 352.953705,574.086243 362.037109,571.448669 
M399.027435,657.873108 
	C399.354889,660.444824 399.488068,663.059143 400.041718,665.581177 
	C403.292877,680.391174 412.435242,687.567261 424.415649,689.633301 
	C434.440338,691.362000 445.007629,690.240173 455.318298,689.893738 
	C460.751617,689.711182 464.985046,684.443054 464.993866,678.988831 
	C465.013458,666.835022 465.006561,654.681213 464.997406,642.527405 
	C464.992310,635.719543 460.371399,631.064636 453.437927,631.014893 
	C444.780853,630.952759 436.104218,630.644775 427.470886,631.101990 
	C419.192749,631.540344 411.704346,634.769958 406.910217,641.734741 
	C403.712830,646.379883 401.845856,651.940857 399.027435,657.873108 
M263.581268,642.053589 
	C256.377747,634.044922 247.433395,630.436646 236.644394,630.945740 
	C230.336746,631.243347 224.003571,630.993286 217.681900,631.001648 
	C209.079681,631.013062 205.005737,635.158936 205.001358,643.907593 
	C204.995773,655.053711 204.999695,666.199890 205.000107,677.346008 
	C205.000427,685.631470 209.300858,689.983582 217.525528,689.997559 
	C224.512634,690.009399 231.506073,689.814880 238.485153,690.051880 
	C245.553391,690.291809 251.532761,688.182312 257.504150,684.278137 
	C271.544159,675.098938 273.993103,655.526428 263.581268,642.053589 
M744.000000,599.499512 
	C744.000000,593.068420 744.000000,586.637329 744.000000,580.269043 
	C741.049866,580.269043 738.650635,580.269043 736.000366,580.269043 
	C736.000366,592.822144 735.618164,605.125000 736.171570,617.385559 
	C736.424866,622.997070 737.218628,629.089355 743.583191,632.151855 
	C756.582031,638.406738 768.432556,633.169617 769.763916,619.147461 
	C770.986023,606.276001 770.023560,593.197205 770.023560,580.281311 
	C767.693237,580.281311 764.957336,580.281311 762.000000,580.281311 
	C762.000000,593.680420 762.008728,606.799500 761.995300,619.918518 
	C761.990601,624.557800 758.566650,627.838501 753.637024,627.989746 
	C749.697083,628.110657 745.229065,624.395752 745.015259,620.684387 
	C744.627686,613.958679 744.333252,607.227539 744.000000,599.499512 
M1058.112183,625.638123 
	C1056.199585,622.362305 1054.287109,619.086548 1051.802368,614.830811 
	C1062.958374,614.830811 1072.397095,614.830811 1082.332520,614.830811 
	C1081.848755,611.373047 1081.423340,608.337769 1080.999634,605.302246 
	C1080.105835,598.897034 1075.277344,592.667664 1069.806641,592.119019 
	C1062.472412,591.383606 1055.199951,591.439209 1049.916870,598.267456 
	C1045.275269,604.266602 1045.424072,610.940308 1045.953735,617.905640 
	C1046.477661,624.797302 1050.814087,631.013733 1057.521973,632.942200 
	C1065.064209,635.110413 1072.569092,634.545166 1079.740479,631.555908 
	C1079.740479,628.985596 1079.740479,626.573303 1079.740479,623.905396 
	C1072.746704,626.524780 1066.160889,630.570129 1058.112183,625.638123 
M636.709839,600.177551 
	C631.431213,588.586670 612.223877,589.716431 606.304626,599.021179 
	C602.475647,605.040222 602.492310,611.279114 602.959595,617.881104 
	C603.450439,624.816406 607.769897,631.012634 614.496521,632.938232 
	C622.033813,635.095886 629.548584,634.572266 636.755127,631.549072 
	C636.755127,629.003723 636.755127,626.587463 636.755127,624.090393 
	C618.376404,630.820740 613.769470,629.263550 610.109802,614.821655 
	C619.797363,614.821655 629.372803,614.821655 639.610474,614.821655 
	C638.660522,609.805115 637.821167,605.372375 636.709839,600.177551 
M930.716431,634.000000 
	C936.116699,633.532288 941.516968,633.064636 946.754028,632.611084 
	C946.754028,628.993835 946.754028,626.582092 946.754028,624.089539 
	C929.402893,630.448914 919.724854,626.976379 921.595398,614.855225 
	C930.612183,614.855225 939.690918,614.855225 948.999634,614.855225 
	C948.999634,612.526733 949.169495,610.539124 948.969482,608.589355 
	C948.211426,601.197449 945.367615,594.546875 937.804138,592.588806 
	C931.033875,590.836060 924.039490,591.002014 918.290161,597.028870 
	C911.898804,603.728882 911.927429,611.854065 913.468262,619.509644 
	C915.358337,628.900330 921.235229,633.659302 930.716431,634.000000 
M703.354004,594.963867 
	C702.683716,595.470947 702.013367,595.978088 700.812805,596.886292 
	C700.812805,590.008911 700.812805,583.518738 700.812805,577.170044 
	C698.329407,577.170044 696.376160,577.170044 694.307861,577.170044 
	C694.307861,595.856323 694.307861,614.371094 694.307861,632.686340 
	C696.689697,632.686340 698.757996,632.686340 701.000000,632.686340 
	C701.000000,625.071533 700.482605,617.716553 701.214600,610.488098 
	C701.590088,606.780518 703.601013,602.832397 705.946960,599.833130 
	C708.904785,596.051514 716.558167,598.428223 717.005737,603.620911 
	C717.284119,606.851135 717.878540,610.067444 717.954834,613.298889 
	C718.107056,619.742188 718.000000,626.191528 718.000000,632.813232 
	C720.468506,632.813232 722.534790,632.813232 725.000000,632.813232 
	C725.000000,623.357971 725.086670,614.082764 724.964661,604.810364 
	C724.900208,599.909058 723.670776,595.059875 718.748230,593.068909 
	C713.863708,591.093140 708.587463,590.632446 703.354004,594.963867 
M814.000061,616.513550 
	C813.666321,611.287109 813.516968,606.040344 812.943054,600.840393 
	C812.442200,596.302368 807.829773,590.950562 802.741638,591.995911 
	C798.328674,592.902588 793.908569,593.774231 790.120239,594.535095 
	C787.589539,593.848633 785.128967,593.181213 782.307983,592.416077 
	C782.307983,606.488647 782.307983,619.680969 782.307983,632.687500 
	C785.028442,632.687500 787.434143,632.687500 790.000366,632.687500 
	C790.000366,624.075806 789.866455,615.772827 790.047913,607.476685 
	C790.167236,602.024231 794.408325,597.848511 799.150269,598.002136 
	C803.267212,598.135437 805.993286,601.937439 805.998108,607.582642 
	C806.005249,616.003052 806.000000,624.423401 806.000000,632.707336 
	C808.996094,632.707336 811.398132,632.707336 814.000000,632.707336 
	C814.000000,627.446777 814.000000,622.477112 814.000061,616.513550 
M1012.962952,601.419189 
	C1014.895874,600.279480 1016.863220,598.137329 1018.754822,598.202148 
	C1023.114319,598.351624 1027.437134,599.573242 1031.864258,600.376099 
	C1032.254395,596.807251 1033.011475,592.654602 1027.419067,592.239685 
	C1022.794067,591.896545 1018.032471,591.591736 1013.495728,592.309021 
	C1007.588684,593.243042 1004.933533,597.824097 1004.999939,605.036255 
	C1005.051270,610.608765 1007.645020,613.607056 1013.668457,614.989014 
	C1015.393311,615.384766 1017.183044,615.541931 1018.868652,616.053589 
	C1020.852173,616.655518 1023.042114,617.162537 1024.596558,618.397827 
	C1025.730957,619.299316 1026.937500,622.106079 1026.454590,622.687561 
	C1024.722046,624.774170 1022.236511,627.772949 1020.123779,627.704590 
	C1014.792664,627.531860 1009.509521,625.878479 1004.258240,624.828674 
	C1003.523254,632.156067 1004.338257,633.339294 1012.018799,633.943665 
	C1015.992493,634.256348 1020.026489,634.221741 1024.005493,633.945129 
	C1029.601807,633.556091 1033.749756,628.734985 1034.039795,623.281616 
	C1034.533813,613.987671 1032.577759,612.269531 1024.642944,610.023315 
	C1021.712769,609.193909 1018.620789,608.874268 1015.764648,607.863892 
	C1013.248901,606.973938 1011.137451,605.345947 1012.962952,601.419189 
M575.500000,580.000000 
	C568.724609,580.000000 561.949219,580.000000 555.281860,580.000000 
	C555.281860,582.639343 555.281860,584.710083 555.281860,587.166626 
	C560.970215,587.166626 566.385742,587.166626 572.168396,587.166626 
	C572.168396,602.650146 572.168396,617.732483 572.168396,632.714600 
	C574.973938,632.714600 577.380981,632.714600 580.172791,632.714600 
	C580.172791,617.358032 580.172791,602.283020 580.172791,586.828247 
	C585.991577,586.828247 591.411499,586.828247 596.714478,586.828247 
	C596.714478,584.363586 596.714478,582.293518 596.714478,580.000000 
	C589.787109,580.000000 583.143494,580.000000 575.500000,580.000000 
M876.965149,619.703491 
	C878.076965,623.375366 879.103821,627.076721 880.361023,630.698120 
	C880.672119,631.594116 881.605103,632.666931 882.466553,632.915283 
	C887.985107,634.506958 891.110291,632.609558 893.043396,626.886475 
	C894.014771,624.010742 895.204285,621.209473 896.227173,618.350281 
	C899.199280,610.042053 902.137024,601.721558 905.041809,593.536804 
	C898.549988,591.397034 896.342102,594.182678 894.825256,599.748352 
	C892.612000,607.869019 889.304565,615.691528 886.220459,624.321350 
	C883.022461,615.561523 879.362915,607.663818 877.361694,599.366211 
	C875.830261,593.016113 872.595337,592.175110 867.207092,593.287048 
	C870.316406,601.874268 873.419983,610.445618 876.965149,619.703491 
M672.157043,592.000000 
	C668.394653,592.210754 664.490051,591.846619 660.895325,592.735413 
	C647.832275,595.965210 644.914490,614.283386 651.081055,625.564270 
	C655.572510,633.780884 663.150818,634.396973 671.313354,634.048401 
	C679.472961,633.700012 680.938904,632.094971 679.385132,624.163940 
	C670.027954,629.334656 664.622864,629.317749 659.588806,624.102051 
	C655.401306,619.763550 654.382996,608.878967 658.236389,603.545105 
	C664.512390,594.857971 672.083191,597.508118 679.587402,602.319397 
	C680.149231,593.033752 681.582642,594.627563 672.157043,592.000000 
M973.949524,602.581665 
	C975.832458,601.389648 977.687073,599.257019 979.604187,599.199341 
	C983.741760,599.074585 987.911438,600.015137 992.311096,600.549377 
	C994.487183,594.260620 993.043518,593.257019 986.507019,592.102844 
	C980.851440,591.104309 975.422852,592.230774 971.162781,597.229675 
	C970.447693,595.551270 969.911560,594.293030 969.431824,593.167053 
	C967.289612,593.167053 965.341919,593.167053 963.000000,593.167053 
	C963.000000,599.944519 963.000000,606.562744 963.000000,613.180908 
	C963.000000,619.766296 963.000000,626.351746 963.000000,632.664246 
	C966.068909,632.664246 968.475952,632.664246 971.000000,632.664246 
	C971.000000,628.846680 970.923218,625.362122 971.016785,621.882080 
	C971.186768,615.555725 969.928528,609.040161 973.949524,602.581665 
M829.000366,595.517334 
	C829.032166,603.125000 835.635315,596.535095 838.000000,600.135254 
	C838.000000,607.057129 837.921875,614.536316 838.026245,622.012939 
	C838.102173,627.449341 842.534668,632.725220 847.232239,632.960938 
	C851.021118,633.151062 854.827148,632.999451 858.638428,632.999451 
	C858.638428,630.756653 858.638428,628.904541 858.638428,627.034546 
	C845.189758,628.130615 844.925842,623.243652 844.991394,613.422974 
	C845.036499,606.662903 845.000000,599.902222 845.000000,593.001099 
	C840.051514,593.001099 835.729614,592.920105 831.415955,593.072266 
	C830.595520,593.101257 829.807678,594.053162 829.000366,595.517334 
M844.944702,577.738159 
	C842.355347,577.441467 839.765991,577.144836 837.289062,576.861023 
	C837.289062,580.394958 837.289062,583.111755 837.289062,585.747498 
	C839.970886,585.747498 842.356995,585.747498 844.996094,585.747498 
	C844.996094,583.225525 844.996094,580.953003 844.944702,577.738159 
z"/>
<path fill="#FFFFFF" opacity="1.000000" stroke="none" 
	d="
M396.685303,638.815979 
	C388.997589,652.158997 388.218781,665.782166 395.161285,678.983521 
	C401.746002,691.504700 412.668152,698.509155 427.156982,698.965393 
	C433.647491,699.169861 440.153168,699.124756 446.645233,698.946838 
	C449.832458,698.859436 451.200562,699.838867 451.053711,703.197510 
	C450.842865,708.019287 450.981628,712.857422 451.006165,717.688293 
	C451.023438,721.088928 450.087036,723.503845 446.232208,724.411072 
	C434.672211,727.131653 423.166473,730.085510 411.656952,733.016663 
	C406.065125,734.440674 400.538757,736.125549 394.935486,737.499695 
	C385.743164,739.753967 376.472809,741.697815 367.308746,744.057495 
	C358.024017,746.448364 348.870728,749.355530 339.567902,751.666138 
	C336.755035,752.364807 333.482147,752.450378 330.682190,751.757446 
	C314.663239,747.792236 298.752136,743.393127 282.747040,739.369568 
	C270.905243,736.392578 258.959808,733.830200 247.091629,730.954895 
	C239.298141,729.066772 231.529312,727.059448 223.809326,724.892212 
	C219.643173,723.722656 218.001572,720.426086 218.016403,716.319946 
	C218.091827,695.416138 216.105240,699.159424 234.368698,699.074158 
	C242.581299,699.035828 250.671951,699.065613 258.143829,695.014954 
	C268.578369,689.358215 275.454010,681.219299 278.141388,669.268982 
	C280.458588,658.964905 278.925842,649.369568 273.776123,640.731995 
	C267.133331,629.590210 257.005371,622.819092 243.672089,622.061584 
	C237.362091,621.703125 231.014679,622.030884 224.684586,621.990417 
	C219.483597,621.957153 218.022858,620.528625 218.011597,615.357422 
	C217.978943,600.364502 217.987717,585.371521 218.005020,570.378540 
	C218.014114,562.494873 222.440979,559.048218 230.125259,561.081665 
	C240.970932,563.951782 251.761581,567.030273 262.611084,569.885315 
	C276.415344,573.517883 290.224518,577.140381 304.089661,580.529663 
	C313.758240,582.893127 323.457458,586.074219 333.268188,586.613892 
	C341.074524,587.043213 349.112610,584.220276 356.970886,582.491394 
	C365.902649,580.526367 374.761505,578.222290 383.629395,575.976013 
	C396.994690,572.590515 410.327728,569.077393 423.699341,565.717407 
	C430.558563,563.993774 437.467316,562.465637 444.362122,560.885925 
	C448.670929,559.898682 450.892548,562.181152 450.928680,566.084351 
	C451.090637,583.574585 450.978088,601.067261 451.016998,618.558899 
	C451.024750,622.048889 448.451630,621.911011 446.273712,621.954712 
	C439.945923,622.081665 433.600525,621.735474 427.286407,622.055725 
	C414.608002,622.698730 404.295624,627.963623 396.685303,638.815979 
z"/>
<path fill="#FFFFFF" opacity="1.000000" stroke="none" 
	d="
M313.791656,453.670654 
	C320.536652,451.999237 326.937012,449.868500 333.448944,449.442230 
	C339.166534,449.067963 345.245544,449.807648 350.753387,451.442108 
	C369.023590,456.863953 381.868073,469.056824 390.284027,485.843689 
	C397.627350,500.491119 397.778290,515.835205 392.787842,531.230530 
	C392.233093,532.941833 389.943909,534.782410 388.112915,535.274231 
	C377.715912,538.067078 367.191895,540.382690 356.754761,543.032776 
	C350.097534,544.723083 343.596893,547.163330 336.865173,548.369263 
	C333.643616,548.946472 329.995239,547.654846 326.632263,546.832825 
	C316.351074,544.319763 306.126770,541.575073 295.855286,539.021118 
	C291.171448,537.856506 286.375061,537.115051 281.744385,535.782959 
	C280.280548,535.361816 278.647308,533.885010 278.031891,532.479553 
	C276.438538,528.840820 274.600281,525.047729 274.223480,521.183289 
	C272.618195,504.718933 274.897095,489.037476 285.170990,475.323151 
	C292.560120,465.459717 301.620911,457.851349 313.791656,453.670654 
z"/>
<path fill="#FFFFFF" opacity="1.000000" stroke="none" 
	d="
M361.693237,571.703613 
	C352.953705,574.086243 344.558563,576.216125 336.160675,578.335022 
	C335.789124,578.428833 335.363251,578.536804 335.011688,578.446777 
	C326.483856,576.262573 317.962372,574.053284 309.440369,571.846436 
	C299.346649,569.232666 289.268768,566.555664 279.154846,564.022644 
	C271.997162,562.229919 264.788147,560.642517 257.611572,558.923767 
	C256.998962,558.776978 256.490570,558.167297 255.879501,558.046204 
	C245.879456,556.063843 243.713348,552.887695 246.073303,543.046509 
	C247.016403,539.113708 250.017899,537.235962 253.826614,538.099792 
	C263.994751,540.406128 274.072968,543.107727 284.191711,545.633057 
	C300.686096,549.749573 317.153992,553.981506 333.713562,557.817200 
	C336.191254,558.391113 339.149445,557.253601 341.811951,556.605957 
	C356.153748,553.117371 370.481415,549.569519 384.795929,545.970276 
	C394.593262,543.506958 404.427734,541.153259 414.115997,538.309082 
	C419.543427,536.715759 424.849304,540.648682 424.025909,545.926758 
	C423.848419,547.064636 424.000153,548.253784 423.999969,549.419312 
	C423.999023,555.811829 422.794189,556.648499 416.244995,558.091980 
	C405.919952,560.367737 395.737579,563.284729 385.472595,565.841064 
	C377.678680,567.782166 369.850189,569.584534 361.693237,571.703613 
z"/>
<path fill="#FFFFFF" opacity="1.000000" stroke="none" 
	d="
M399.205444,657.482544 
	C401.845856,651.940857 403.712830,646.379883 406.910217,641.734741 
	C411.704346,634.769958 419.192749,631.540344 427.470886,631.101990 
	C436.104218,630.644775 444.780853,630.952759 453.437927,631.014893 
	C460.371399,631.064636 464.992310,635.719543 464.997406,642.527405 
	C465.006561,654.681213 465.013458,666.835022 464.993866,678.988831 
	C464.985046,684.443054 460.751617,689.711182 455.318298,689.893738 
	C445.007629,690.240173 434.440338,691.362000 424.415649,689.633301 
	C412.435242,687.567261 403.292877,680.391174 400.041718,665.581177 
	C399.488068,663.059143 399.354889,660.444824 399.205444,657.482544 
z"/>
<path fill="#FFFFFF" opacity="1.000000" stroke="none" 
	d="
M263.826111,642.330200 
	C273.993103,655.526428 271.544159,675.098938 257.504150,684.278137 
	C251.532761,688.182312 245.553391,690.291809 238.485153,690.051880 
	C231.506073,689.814880 224.512634,690.009399 217.525528,689.997559 
	C209.300858,689.983582 205.000427,685.631470 205.000107,677.346008 
	C204.999695,666.199890 204.995773,655.053711 205.001358,643.907593 
	C205.005737,635.158936 209.079681,631.013062 217.681900,631.001648 
	C224.003571,630.993286 230.336746,631.243347 236.644394,630.945740 
	C247.433395,630.436646 256.377747,634.044922 263.826111,642.330200 
z"/>
<path fill="#FFFFFF" opacity="1.000000" stroke="none" 
	d="
M744.000000,599.999084 
	C744.333252,607.227539 744.627686,613.958679 745.015259,620.684387 
	C745.229065,624.395752 749.697083,628.110657 753.637024,627.989746 
	C758.566650,627.838501 761.990601,624.557800 761.995300,619.918518 
	C762.008728,606.799500 762.000000,593.680420 762.000000,580.281311 
	C764.957336,580.281311 767.693237,580.281311 770.023560,580.281311 
	C770.023560,593.197205 770.986023,606.276001 769.763916,619.147461 
	C768.432556,633.169617 756.582031,638.406738 743.583191,632.151855 
	C737.218628,629.089355 736.424866,622.997070 736.171570,617.385559 
	C735.618164,605.125000 736.000366,592.822144 736.000366,580.269043 
	C738.650635,580.269043 741.049866,580.269043 744.000000,580.269043 
	C744.000000,586.637329 744.000000,593.068420 744.000000,599.999084 
z"/>
<path fill="#FFFFFF" opacity="1.000000" stroke="none" 
	d="
M1058.465698,625.810425 
	C1066.160889,630.570129 1072.746704,626.524780 1079.740479,623.905396 
	C1079.740479,626.573303 1079.740479,628.985596 1079.740479,631.555908 
	C1072.569092,634.545166 1065.064209,635.110413 1057.521973,632.942200 
	C1050.814087,631.013733 1046.477661,624.797302 1045.953735,617.905640 
	C1045.424072,610.940308 1045.275269,604.266602 1049.916870,598.267456 
	C1055.199951,591.439209 1062.472412,591.383606 1069.806641,592.119019 
	C1075.277344,592.667664 1080.105835,598.897034 1080.999634,605.302246 
	C1081.423340,608.337769 1081.848755,611.373047 1082.332520,614.830811 
	C1072.397095,614.830811 1062.958374,614.830811 1051.802368,614.830811 
	C1054.287109,619.086548 1056.199585,622.362305 1058.465698,625.810425 
M1072.084717,601.629089 
	C1068.121948,597.838379 1063.152954,596.592896 1059.392334,599.350891 
	C1056.449829,601.508850 1053.045532,604.113892 1054.199829,608.624146 
	C1061.050171,608.298462 1067.483887,607.992493 1074.226807,607.671875 
	C1073.633057,605.538635 1073.163452,603.851074 1072.084717,601.629089 
z"/>
<path fill="#FFFFFF" opacity="1.000000" stroke="none" 
	d="
M636.845825,600.558594 
	C637.821167,605.372375 638.660522,609.805115 639.610474,614.821655 
	C629.372803,614.821655 619.797363,614.821655 610.109802,614.821655 
	C613.769470,629.263550 618.376404,630.820740 636.755127,624.090393 
	C636.755127,626.587463 636.755127,629.003723 636.755127,631.549072 
	C629.548584,634.572266 622.033813,635.095886 614.496521,632.938232 
	C607.769897,631.012634 603.450439,624.816406 602.959595,617.881104 
	C602.492310,611.279114 602.475647,605.040222 606.304626,599.021179 
	C612.223877,589.716431 631.431213,588.586670 636.845825,600.558594 
M613.556030,608.995361 
	C619.334839,608.484863 625.113586,607.974304 631.044312,607.450378 
	C630.505310,601.939636 627.640320,598.780151 622.315918,598.025696 
	C618.332458,597.461304 613.099854,600.758545 611.674561,604.971252 
	C611.301514,606.073975 612.305847,607.642761 613.556030,608.995361 
z"/>
<path fill="#FFFFFF" opacity="1.000000" stroke="none" 
	d="
M930.256226,634.000000 
	C921.235229,633.659302 915.358337,628.900330 913.468262,619.509644 
	C911.927429,611.854065 911.898804,603.728882 918.290161,597.028870 
	C924.039490,591.002014 931.033875,590.836060 937.804138,592.588806 
	C945.367615,594.546875 948.211426,601.197449 948.969482,608.589355 
	C949.169495,610.539124 948.999634,612.526733 948.999634,614.855225 
	C939.690918,614.855225 930.612183,614.855225 921.595398,614.855225 
	C919.724854,626.976379 929.402893,630.448914 946.754028,624.089539 
	C946.754028,626.582092 946.754028,628.993835 946.754028,632.611084 
	C941.516968,633.064636 936.116699,633.532288 930.256226,634.000000 
M937.381958,599.923401 
	C929.497314,595.478333 922.630127,599.149048 921.142212,608.651917 
	C927.653809,608.339294 934.156311,608.027161 941.996582,607.650757 
	C940.467102,604.915833 939.220093,602.685974 937.381958,599.923401 
z"/>
<path fill="#FFFFFF" opacity="1.000000" stroke="none" 
	d="
M703.678711,594.723877 
	C708.587463,590.632446 713.863708,591.093140 718.748230,593.068909 
	C723.670776,595.059875 724.900208,599.909058 724.964661,604.810364 
	C725.086670,614.082764 725.000000,623.357971 725.000000,632.813232 
	C722.534790,632.813232 720.468506,632.813232 718.000000,632.813232 
	C718.000000,626.191528 718.107056,619.742188 717.954834,613.298889 
	C717.878540,610.067444 717.284119,606.851135 717.005737,603.620911 
	C716.558167,598.428223 708.904785,596.051514 705.946960,599.833130 
	C703.601013,602.832397 701.590088,606.780518 701.214600,610.488098 
	C700.482605,617.716553 701.000000,625.071533 701.000000,632.686340 
	C698.757996,632.686340 696.689697,632.686340 694.307861,632.686340 
	C694.307861,614.371094 694.307861,595.856323 694.307861,577.170044 
	C696.376160,577.170044 698.329407,577.170044 700.812805,577.170044 
	C700.812805,583.518738 700.812805,590.008911 700.812805,596.886292 
	C702.013367,595.978088 702.683716,595.470947 703.678711,594.723877 
z"/>
<path fill="#FFFFFF" opacity="1.000000" stroke="none" 
	d="
M814.000000,617.010498 
	C814.000000,622.477112 814.000000,627.446777 814.000000,632.707336 
	C811.398132,632.707336 808.996094,632.707336 806.000000,632.707336 
	C806.000000,624.423401 806.005249,616.003052 805.998108,607.582642 
	C805.993286,601.937439 803.267212,598.135437 799.150269,598.002136 
	C794.408325,597.848511 790.167236,602.024231 790.047913,607.476685 
	C789.866455,615.772827 790.000366,624.075806 790.000366,632.687500 
	C787.434143,632.687500 785.028442,632.687500 782.307983,632.687500 
	C782.307983,619.680969 782.307983,606.488647 782.307983,592.416077 
	C785.128967,593.181213 787.589539,593.848633 790.120239,594.535095 
	C793.908569,593.774231 798.328674,592.902588 802.741638,591.995911 
	C807.829773,590.950562 812.442200,596.302368 812.943054,600.840393 
	C813.516968,606.040344 813.666321,611.287109 814.000000,617.010498 
z"/>
<path fill="#FFFFFF" opacity="1.000000" stroke="none" 
	d="
M1012.705688,601.727905 
	C1011.137451,605.345947 1013.248901,606.973938 1015.764648,607.863892 
	C1018.620789,608.874268 1021.712769,609.193909 1024.642944,610.023315 
	C1032.577759,612.269531 1034.533813,613.987671 1034.039795,623.281616 
	C1033.749756,628.734985 1029.601807,633.556091 1024.005493,633.945129 
	C1020.026489,634.221741 1015.992493,634.256348 1012.018799,633.943665 
	C1004.338257,633.339294 1003.523254,632.156067 1004.258240,624.828674 
	C1009.509521,625.878479 1014.792664,627.531860 1020.123779,627.704590 
	C1022.236511,627.772949 1024.722046,624.774170 1026.454590,622.687561 
	C1026.937500,622.106079 1025.730957,619.299316 1024.596558,618.397827 
	C1023.042114,617.162537 1020.852173,616.655518 1018.868652,616.053589 
	C1017.183044,615.541931 1015.393311,615.384766 1013.668457,614.989014 
	C1007.645020,613.607056 1005.051270,610.608765 1004.999939,605.036255 
	C1004.933533,597.824097 1007.588684,593.243042 1013.495728,592.309021 
	C1018.032471,591.591736 1022.794067,591.896545 1027.419067,592.239685 
	C1033.011475,592.654602 1032.254395,596.807251 1031.864258,600.376099 
	C1027.437134,599.573242 1023.114319,598.351624 1018.754822,598.202148 
	C1016.863220,598.137329 1014.895874,600.279480 1012.705688,601.727905 
z"/>
<path fill="#FFFFFF" opacity="1.000000" stroke="none" 
	d="
M576.000000,580.000000 
	C583.143494,580.000000 589.787109,580.000000 596.714478,580.000000 
	C596.714478,582.293518 596.714478,584.363586 596.714478,586.828247 
	C591.411499,586.828247 585.991577,586.828247 580.172791,586.828247 
	C580.172791,602.283020 580.172791,617.358032 580.172791,632.714600 
	C577.380981,632.714600 574.973938,632.714600 572.168396,632.714600 
	C572.168396,617.732483 572.168396,602.650146 572.168396,587.166626 
	C566.385742,587.166626 560.970215,587.166626 555.281860,587.166626 
	C555.281860,584.710083 555.281860,582.639343 555.281860,580.000000 
	C561.949219,580.000000 568.724609,580.000000 576.000000,580.000000 
z"/>
<path fill="#FFFFFF" opacity="1.000000" stroke="none" 
	d="
M876.744385,619.360229 
	C873.419983,610.445618 870.316406,601.874268 867.207092,593.287048 
	C872.595337,592.175110 875.830261,593.016113 877.361694,599.366211 
	C879.362915,607.663818 883.022461,615.561523 886.220459,624.321350 
	C889.304565,615.691528 892.612000,607.869019 894.825256,599.748352 
	C896.342102,594.182678 898.549988,591.397034 905.041809,593.536804 
	C902.137024,601.721558 899.199280,610.042053 896.227173,618.350281 
	C895.204285,621.209473 894.014771,624.010742 893.043396,626.886475 
	C891.110291,632.609558 887.985107,634.506958 882.466553,632.915283 
	C881.605103,632.666931 880.672119,631.594116 880.361023,630.698120 
	C879.103821,627.076721 878.076965,623.375366 876.744385,619.360229 
z"/>
<path fill="#FFFFFF" opacity="1.000000" stroke="none" 
	d="
M672.613403,592.000732 
	C681.582642,594.627563 680.149231,593.033752 679.587402,602.319397 
	C672.083191,597.508118 664.512390,594.857971 658.236389,603.545105 
	C654.382996,608.878967 655.401306,619.763550 659.588806,624.102051 
	C664.622864,629.317749 670.027954,629.334656 679.385132,624.163940 
	C680.938904,632.094971 679.472961,633.700012 671.313354,634.048401 
	C663.150818,634.396973 655.572510,633.780884 651.081055,625.564270 
	C644.914490,614.283386 647.832275,595.965210 660.895325,592.735413 
	C664.490051,591.846619 668.394653,592.210754 672.613403,592.000732 
z"/>
<path fill="#FFFFFF" opacity="1.000000" stroke="none" 
	d="
M973.652710,602.849304 
	C969.928528,609.040161 971.186768,615.555725 971.016785,621.882080 
	C970.923218,625.362122 971.000000,628.846680 971.000000,632.664246 
	C968.475952,632.664246 966.068909,632.664246 963.000000,632.664246 
	C963.000000,626.351746 963.000000,619.766296 963.000000,613.180908 
	C963.000000,606.562744 963.000000,599.944519 963.000000,593.167053 
	C965.341919,593.167053 967.289612,593.167053 969.431824,593.167053 
	C969.911560,594.293030 970.447693,595.551270 971.162781,597.229675 
	C975.422852,592.230774 980.851440,591.104309 986.507019,592.102844 
	C993.043518,593.257019 994.487183,594.260620 992.311096,600.549377 
	C987.911438,600.015137 983.741760,599.074585 979.604187,599.199341 
	C977.687073,599.257019 975.832458,601.389648 973.652710,602.849304 
z"/>
<path fill="#FFFFFF" opacity="1.000000" stroke="none" 
	d="
M829.002563,595.048279 
	C829.807678,594.053162 830.595520,593.101257 831.415955,593.072266 
	C835.729614,592.920105 840.051514,593.001099 845.000000,593.001099 
	C845.000000,599.902222 845.036499,606.662903 844.991394,613.422974 
	C844.925842,623.243652 845.189758,628.130615 858.638428,627.034546 
	C858.638428,628.904541 858.638428,630.756653 858.638428,632.999451 
	C854.827148,632.999451 851.021118,633.151062 847.232239,632.960938 
	C842.534668,632.725220 838.102173,627.449341 838.026245,622.012939 
	C837.921875,614.536316 838.000000,607.057129 838.000000,600.135254 
	C835.635315,596.535095 829.032166,603.125000 829.002563,595.048279 
z"/>
<path fill="#FFFFFF" opacity="1.000000" stroke="none" 
	d="
M844.970398,578.209351 
	C844.996094,580.953003 844.996094,583.225525 844.996094,585.747498 
	C842.356995,585.747498 839.970886,585.747498 837.289062,585.747498 
	C837.289062,583.111755 837.289062,580.394958 837.289062,576.861023 
	C839.765991,577.144836 842.355347,577.441467 844.970398,578.209351 
z"/>
<path fill="#000000" opacity="1.000000" stroke="none" 
	d="
M1072.389160,601.896362 
	C1073.163452,603.851074 1073.633057,605.538635 1074.226807,607.671875 
	C1067.483887,607.992493 1061.050171,608.298462 1054.199829,608.624146 
	C1053.045532,604.113892 1056.449829,601.508850 1059.392334,599.350891 
	C1063.152954,596.592896 1068.121948,597.838379 1072.389160,601.896362 
z"/>
<path fill="#000000" opacity="1.000000" stroke="none" 
	d="
M613.116821,608.996460 
	C612.305847,607.642761 611.301514,606.073975 611.674561,604.971252 
	C613.099854,600.758545 618.332458,597.461304 622.315918,598.025696 
	C627.640320,598.780151 630.505310,601.939636 631.044312,607.450378 
	C625.113586,607.974304 619.334839,608.484863 613.116821,608.996460 
z"/>
<path fill="#000000" opacity="1.000000" stroke="none" 
	d="
M937.677551,600.189819 
	C939.220093,602.685974 940.467102,604.915833 941.996582,607.650757 
	C934.156311,608.027161 927.653809,608.339294 921.142212,608.651917 
	C922.630127,599.149048 929.497314,595.478333 937.677551,600.189819 
z"/>
</svg>